<svg width="104" height="104" viewBox="0 0 104 104" fill="none" xmlns="http://www.w3.org/2000/svg">
<path fill-rule="evenodd" clip-rule="evenodd" d="M50.3405 17.1531C49.3634 18.2017 48.8315 19.5885 48.8568 21.0215C48.8821 22.4545 49.4626 23.8217 50.476 24.8351C51.4894 25.8485 52.8566 26.429 54.2896 26.4543C55.7226 26.4796 57.1094 25.9477 58.158 24.9706L67.3767 15.7519C68.7472 14.3815 70.3741 13.2944 72.1646 12.5527C73.9552 11.811 75.8743 11.4293 77.8124 11.4293C79.7504 11.4293 81.6695 11.811 83.4601 12.5527C85.2506 13.2944 86.8775 14.3815 88.248 15.7519C89.6184 17.1223 90.7055 18.7492 91.4471 20.5398C92.1888 22.3303 92.5706 24.2494 92.5706 26.1875C92.5706 28.1256 92.1888 30.0447 91.4471 31.8352C90.7055 33.6258 89.6184 35.2527 88.248 36.6231L69.8105 55.0606C68.4406 56.432 66.8138 57.52 65.0232 58.2623C63.2326 59.0045 61.3132 59.3866 59.3749 59.3866C57.4365 59.3866 55.5171 59.0045 53.7265 58.2623C51.9359 57.52 50.3091 56.432 48.9392 55.0606C47.8907 54.0836 46.5038 53.5517 45.0709 53.577C43.6379 53.6022 42.2707 54.1827 41.2573 55.1962C40.2438 56.2096 39.6633 57.5768 39.6381 59.0098C39.6128 60.4427 40.1447 61.8296 41.1217 62.8781C43.5187 65.2753 46.3643 67.1769 49.4962 68.4743C52.6281 69.7716 55.9849 70.4394 59.3749 70.4394C62.7648 70.4394 66.1216 69.7716 69.2535 68.4743C72.3854 67.1769 75.231 65.2753 77.628 62.8781L96.0655 44.4406C100.907 39.5996 103.626 33.0338 103.626 26.1875C103.626 19.3413 100.907 12.7754 96.0655 7.93438C91.2244 3.09335 84.6586 0.373688 77.8124 0.373688C70.9661 0.373688 64.4003 3.09335 59.5592 7.93438L50.3405 17.1531V17.1531ZM15.7517 88.2481C14.3803 86.8782 13.2924 85.2515 12.5501 83.4609C11.8078 81.6703 11.4257 79.7509 11.4257 77.8125C11.4257 75.8741 11.8078 73.9548 12.5501 72.1641C13.2924 70.3735 14.3803 68.7468 15.7517 67.3769L34.1892 48.9394C35.5591 47.568 37.1859 46.48 38.9765 45.7377C40.7671 44.9955 42.6865 44.6134 44.6249 44.6134C46.5632 44.6134 48.4826 44.9955 50.2732 45.7377C52.0638 46.48 53.6906 47.568 55.0605 48.9394C56.109 49.9164 57.4959 50.4483 58.9288 50.423C60.3618 50.3978 61.729 49.8173 62.7424 48.8038C63.7559 47.7904 64.3364 46.4232 64.3616 44.9902C64.3869 43.5573 63.855 42.1704 62.878 41.1219C60.481 38.7247 57.6354 36.8231 54.5035 35.5258C51.3716 34.2284 48.0148 33.5606 44.6249 33.5606C41.2349 33.5606 37.8781 34.2284 34.7462 35.5258C31.6143 36.8231 28.7687 38.7247 26.3717 41.1219L7.93423 59.5594C3.0932 64.4004 0.373535 70.9663 0.373535 77.8125C0.373535 84.6588 3.0932 91.2246 7.93423 96.0656C12.7753 100.907 19.3411 103.626 26.1874 103.626C33.0336 103.626 39.5994 100.907 44.4405 96.0656L53.6592 86.8469C54.6363 85.7983 55.1682 84.4115 55.1429 82.9785C55.1176 81.5456 54.5371 80.1783 53.5237 79.1649C52.5103 78.1515 51.1431 77.571 49.7101 77.5457C48.2771 77.5204 46.8903 78.0523 45.8417 79.0294L36.623 88.2481C35.2531 89.6195 33.6263 90.7075 31.8357 91.4498C30.0451 92.192 28.1257 92.5741 26.1874 92.5741C24.249 92.5741 22.3296 92.192 20.539 91.4498C18.7484 90.7075 17.1216 89.6195 15.7517 88.2481V88.2481Z" fill="white"/>
</svg>
